<svg width="50" height="12" viewBox="0 0 50 12" fill="none" xmlns="http://www.w3.org/2000/svg">
<path d="M0.63 11V10.2282C1.638 9.22025 2.49375 8.33825 3.19725 7.58225C3.90075 6.81575 4.43625 6.128 4.80375 5.519C5.17125 4.8995 5.355 4.322 5.355 3.7865C5.355 3.209 5.1975 2.7365 4.8825 2.369C4.5675 2.0015 4.08975 1.81775 3.44925 1.81775C3.02925 1.81775 2.64075 1.9385 2.28375 2.18C1.92675 2.411 1.60125 2.6945 1.30725 3.0305L0.567 2.29025C0.987 1.82825 1.43325 1.46075 1.90575 1.18775C2.38875 0.904249 2.95575 0.762499 3.60675 0.762499C4.54125 0.762499 5.27625 1.0355 5.81175 1.5815C6.34725 2.117 6.615 2.831 6.615 3.7235C6.615 4.3535 6.4365 4.994 6.0795 5.645C5.733 6.2855 5.25 6.96275 4.6305 7.67675C4.0215 8.38025 3.318 9.14675 2.52 9.97625C2.793 9.95525 3.0765 9.93425 3.3705 9.91325C3.6645 9.89225 3.94275 9.88175 4.20525 9.88175H7.119V11H0.63ZM9.24636 11V0.668H12.3176C13.0211 0.668 13.6354 0.752 14.1604 0.919999C14.6959 1.088 15.1106 1.35575 15.4046 1.72325C15.7091 2.09075 15.8614 2.579 15.8614 3.188C15.8614 3.7025 15.7301 4.16975 15.4676 4.58975C15.2156 4.99925 14.8429 5.28275 14.3494 5.44025V5.50325C14.9689 5.61875 15.4729 5.88125 15.8614 6.29075C16.2604 6.70025 16.4599 7.262 16.4599 7.976C16.4599 8.648 16.2919 9.20975 15.9559 9.66125C15.6304 10.1127 15.1736 10.4487 14.5856 10.6692C13.9976 10.8897 13.3151 11 12.5381 11H9.24636ZM10.5536 5.06225H12.0814C12.9634 5.06225 13.5986 4.91 13.9871 4.6055C14.3756 4.301 14.5699 3.88625 14.5699 3.36125C14.5699 2.76275 14.3651 2.3375 13.9556 2.0855C13.5566 1.8335 12.9529 1.7075 12.1444 1.7075H10.5536V5.06225ZM10.5536 9.9605H12.3491C13.2416 9.9605 13.9346 9.79775 14.4281 9.47225C14.9216 9.13625 15.1684 8.62175 15.1684 7.92875C15.1684 7.28825 14.9216 6.821 14.4281 6.527C13.9451 6.2225 13.2521 6.07025 12.3491 6.07025H10.5536V9.9605ZM20.8051 11.189C20.0071 11.189 19.3404 11.0472 18.8049 10.7637C18.2694 10.4697 17.8336 10.139 17.4976 9.7715L18.1591 8.921C18.4636 9.236 18.8206 9.51425 19.2301 9.75575C19.6396 9.99725 20.1384 10.118 20.7264 10.118C21.3354 10.118 21.8341 9.95 22.2226 9.614C22.6111 9.278 22.8054 8.83175 22.8054 8.27525C22.8054 7.87625 22.7004 7.52975 22.4904 7.23575C22.2909 6.93125 21.9549 6.695 21.4824 6.527C21.0204 6.359 20.3904 6.275 19.5924 6.275V5.28275C20.3064 5.28275 20.8681 5.19875 21.2776 5.03075C21.6976 4.86275 21.9969 4.637 22.1754 4.3535C22.3539 4.07 22.4431 3.755 22.4431 3.4085C22.4431 2.915 22.2856 2.5265 21.9706 2.243C21.6661 1.9595 21.2461 1.81775 20.7106 1.81775C20.2906 1.81775 19.9021 1.91225 19.5451 2.10125C19.1986 2.29025 18.8731 2.537 18.5686 2.8415L17.8756 2.0225C18.2641 1.655 18.6946 1.35575 19.1671 1.12475C19.6396 0.883249 20.1699 0.762499 20.7579 0.762499C21.6294 0.762499 22.3486 0.988249 22.9156 1.43975C23.4826 1.88075 23.7661 2.5055 23.7661 3.314C23.7661 3.923 23.5981 4.42175 23.2621 4.81025C22.9261 5.19875 22.4851 5.498 21.9391 5.708V5.771C22.5481 5.9075 23.0626 6.19625 23.4826 6.63725C23.9026 7.06775 24.1126 7.6295 24.1126 8.3225C24.1126 8.9105 23.9656 9.41975 23.6716 9.85025C23.3776 10.2807 22.9786 10.6115 22.4746 10.8425C21.9811 11.0735 21.4246 11.189 20.8051 11.189ZM29.0277 5.834C28.7022 5.834 28.3505 5.939 27.9725 6.149C27.5945 6.359 27.248 6.695 26.933 7.157C27.017 8.1335 27.2427 8.879 27.6102 9.3935C27.9882 9.908 28.4975 10.1652 29.138 10.1652C29.6315 10.1652 30.0462 9.96575 30.3822 9.56675C30.7182 9.15725 30.8862 8.62175 30.8862 7.96025C30.8862 7.30925 30.7287 6.79475 30.4137 6.41675C30.1092 6.02825 29.6472 5.834 29.0277 5.834ZM29.138 11.189C28.487 11.189 27.899 11.0105 27.374 10.6535C26.849 10.2965 26.4342 9.761 26.1297 9.047C25.8252 8.3225 25.673 7.42475 25.673 6.35375C25.673 5.00975 25.8515 3.92825 26.2085 3.10925C26.576 2.29025 27.0485 1.697 27.626 1.3295C28.214 0.9515 28.8387 0.762499 29.5002 0.762499C30.0462 0.762499 30.5135 0.867499 30.902 1.0775C31.301 1.277 31.6422 1.529 31.9257 1.8335L31.2012 2.63675C31.0017 2.39525 30.755 2.20625 30.461 2.06975C30.167 1.92275 29.8625 1.84925 29.5475 1.84925C29.075 1.84925 28.6445 1.98575 28.256 2.25875C27.8675 2.52125 27.5472 2.9675 27.2952 3.5975C27.0537 4.217 26.9225 5.057 26.9015 6.1175C27.2165 5.729 27.584 5.4245 28.004 5.204C28.424 4.973 28.8387 4.8575 29.2482 4.8575C30.1197 4.8575 30.8127 5.12 31.3272 5.645C31.8522 6.1595 32.1147 6.93125 32.1147 7.96025C32.1147 8.60075 31.9782 9.1625 31.7052 9.6455C31.4322 10.1285 31.07 10.5065 30.6185 10.7795C30.1775 11.0525 29.684 11.189 29.138 11.189ZM33.9901 11V9.929H36.2896V2.5265H34.4626V1.69175C34.9246 1.60775 35.3236 1.508 35.6596 1.3925C36.0061 1.2665 36.3158 1.1195 36.5888 0.9515H37.5811V9.929H39.6601V11H33.9901ZM45.8982 11.189C45.0372 11.189 44.2655 10.979 43.583 10.559C42.911 10.1285 42.3755 9.51425 41.9765 8.71625C41.588 7.91825 41.3937 6.9575 41.3937 5.834C41.3937 4.721 41.5932 3.7655 41.9922 2.9675C42.3912 2.1695 42.9372 1.55525 43.6302 1.12475C44.3232 0.694249 45.1055 0.478999 45.977 0.478999C46.607 0.478999 47.1635 0.61025 47.6465 0.87275C48.1295 1.12475 48.518 1.41875 48.812 1.75475L48.1032 2.60525C47.8302 2.31125 47.5205 2.075 47.174 1.8965C46.8275 1.718 46.4337 1.62875 45.9927 1.62875C45.3417 1.62875 44.7695 1.802 44.276 2.1485C43.793 2.4845 43.415 2.96225 43.142 3.58175C42.8795 4.20125 42.7482 4.9415 42.7482 5.8025C42.7482 6.6635 42.8795 7.41425 43.142 8.05475C43.4045 8.68475 43.772 9.173 44.2445 9.5195C44.7275 9.866 45.2945 10.0392 45.9455 10.0392C46.439 10.0392 46.88 9.93425 47.2685 9.72425C47.657 9.51425 48.014 9.23075 48.3395 8.87375L49.064 9.69275C48.6545 10.1652 48.1925 10.5327 47.678 10.7952C47.1635 11.0577 46.5702 11.189 45.8982 11.189Z" fill="white"/>
</svg>
