<svg width="418" height="86" viewBox="0 0 418 86" fill="none" xmlns="http://www.w3.org/2000/svg">
<rect x="316.25" y="0.25" width="101.5" height="85.5" fill="#9E494F" stroke="black" stroke-width="0.5"/>
<rect x="158.25" y="0.25" width="101.5" height="85.5" fill="#F3F2EA" stroke="black" stroke-width="0.5"/>
<path d="M204.418 79V68.668H210.371V69.7705H205.725V73.267H209.662V74.3695H205.725V79H204.418ZM214.5 79.189C213.702 79.189 213.035 79.0472 212.499 78.7637C211.964 78.4697 211.528 78.139 211.192 77.7715L211.854 76.921C212.158 77.236 212.515 77.5142 212.925 77.7557C213.334 77.9972 213.833 78.118 214.421 78.118C215.03 78.118 215.529 77.95 215.917 77.614C216.306 77.278 216.5 76.8317 216.5 76.2752C216.5 75.8762 216.395 75.5297 216.185 75.2357C215.985 74.9312 215.649 74.695 215.177 74.527C214.715 74.359 214.085 74.275 213.287 74.275V73.2827C214.001 73.2827 214.563 73.1987 214.972 73.0307C215.392 72.8627 215.691 72.637 215.87 72.3535C216.048 72.07 216.138 71.755 216.138 71.4085C216.138 70.915 215.98 70.5265 215.665 70.243C215.361 69.9595 214.941 69.8177 214.405 69.8177C213.985 69.8177 213.597 69.9122 213.24 70.1013C212.893 70.2902 212.568 70.537 212.263 70.8415L211.57 70.0225C211.959 69.655 212.389 69.3557 212.862 69.1247C213.334 68.8832 213.864 68.7625 214.452 68.7625C215.324 68.7625 216.043 68.9882 216.61 69.4397C217.177 69.8807 217.461 70.5055 217.461 71.314C217.461 71.923 217.293 72.4217 216.957 72.8102C216.621 73.1987 216.18 73.498 215.634 73.708V73.771C216.243 73.9075 216.757 74.1962 217.177 74.6372C217.597 75.0677 217.807 75.6295 217.807 76.3225C217.807 76.9105 217.66 77.4197 217.366 77.8502C217.072 78.2807 216.673 78.6115 216.169 78.8425C215.676 79.0735 215.119 79.189 214.5 79.189ZM220.029 79V68.668H225.983V69.7705H221.336V73.267H225.274V74.3695H221.336V79H220.029ZM227.024 79V78.2282C228.032 77.2202 228.888 76.3382 229.592 75.5822C230.295 74.8157 230.831 74.128 231.198 73.519C231.566 72.8995 231.749 72.322 231.749 71.7865C231.749 71.209 231.592 70.7365 231.277 70.369C230.962 70.0015 230.484 69.8177 229.844 69.8177C229.424 69.8177 229.035 69.9385 228.678 70.18C228.321 70.411 227.996 70.6945 227.702 71.0305L226.961 70.2902C227.381 69.8282 227.828 69.4607 228.3 69.1877C228.783 68.9042 229.35 68.7625 230.001 68.7625C230.936 68.7625 231.671 69.0355 232.206 69.5815C232.742 70.117 233.009 70.831 233.009 71.7235C233.009 72.3535 232.831 72.994 232.474 73.645C232.127 74.2855 231.644 74.9627 231.025 75.6767C230.416 76.3802 229.712 77.1467 228.914 77.9762C229.187 77.9552 229.471 77.9342 229.765 77.9132C230.059 77.8922 230.337 77.8817 230.6 77.8817H233.513V79H227.024ZM235.641 79V68.668H241.594V69.7705H236.948V73.015H240.87V74.1332H236.948V77.8817H241.752V79H235.641ZM245.726 73.2197L245.238 74.7947H248.341L247.852 73.2197C247.663 72.6422 247.485 72.07 247.317 71.503C247.149 70.9255 246.981 70.3375 246.813 69.739H246.75C246.592 70.3375 246.43 70.9255 246.262 71.503C246.094 72.07 245.915 72.6422 245.726 73.2197ZM242.576 79L246.073 68.668H247.553L251.05 79H249.648L248.671 75.85H244.907L243.915 79H242.576Z" fill="black"/>
<path d="M362.843 71.9912C362.843 72.6422 362.995 73.162 363.3 73.5505C363.615 73.9285 364.082 74.1175 364.701 74.1175C365.037 74.1175 365.389 74.0125 365.757 73.8025C366.135 73.5925 366.486 73.2512 366.812 72.7787C366.728 71.8022 366.497 71.062 366.119 70.558C365.741 70.0435 365.232 69.7862 364.591 69.7862C364.108 69.7862 363.693 69.991 363.347 70.4005C363.011 70.7995 362.843 71.3297 362.843 71.9912ZM364.229 79.189C363.693 79.189 363.221 79.0892 362.811 78.8897C362.412 78.6797 362.076 78.4277 361.803 78.1337L362.528 77.3147C362.738 77.5562 362.985 77.7505 363.268 77.8975C363.562 78.0445 363.867 78.118 364.182 78.118C364.654 78.118 365.09 77.9815 365.489 77.7085C365.888 77.4355 366.208 76.984 366.45 76.354C366.702 75.724 366.833 74.8735 366.843 73.8025C366.528 74.2015 366.161 74.5165 365.741 74.7475C365.321 74.9785 364.901 75.094 364.481 75.094C363.62 75.094 362.927 74.8367 362.402 74.3222C361.887 73.7972 361.63 73.0202 361.63 71.9912C361.63 71.3507 361.767 70.789 362.039 70.306C362.313 69.823 362.67 69.445 363.111 69.172C363.562 68.899 364.056 68.7625 364.591 68.7625C365.253 68.7625 365.846 68.941 366.371 69.298C366.896 69.655 367.305 70.1905 367.599 70.9045C367.904 71.6185 368.056 72.5162 368.056 73.5977C368.056 74.9417 367.872 76.0232 367.505 76.8422C367.148 77.6612 366.681 78.2597 366.103 78.6377C365.526 79.0052 364.901 79.189 364.229 79.189ZM370.246 79V68.668H376.2V69.7705H371.554V73.015H375.475V74.1332H371.554V77.8817H376.357V79H370.246ZM378.773 75.1885H381.923V72.2747C381.923 72.0017 381.933 71.6762 381.954 71.2982C381.975 70.9202 381.991 70.6 382.001 70.3375H381.938C381.812 70.579 381.681 70.8152 381.545 71.0463C381.408 71.2772 381.266 71.5135 381.119 71.755L378.773 75.1885ZM381.923 79V76.228H377.402V75.3775L381.702 68.9515H383.151V75.1885H384.521V76.228H383.151V79H381.923ZM386.806 71.9912C386.806 72.6422 386.958 73.162 387.263 73.5505C387.578 73.9285 388.045 74.1175 388.665 74.1175C389.001 74.1175 389.352 74.0125 389.72 73.8025C390.098 73.5925 390.45 73.2512 390.775 72.7787C390.691 71.8022 390.46 71.062 390.082 70.558C389.704 70.0435 389.195 69.7862 388.554 69.7862C388.071 69.7862 387.657 69.991 387.31 70.4005C386.974 70.7995 386.806 71.3297 386.806 71.9912ZM388.192 79.189C387.657 79.189 387.184 79.0892 386.775 78.8897C386.376 78.6797 386.04 78.4277 385.767 78.1337L386.491 77.3147C386.701 77.5562 386.948 77.7505 387.231 77.8975C387.525 78.0445 387.83 78.118 388.145 78.118C388.617 78.118 389.053 77.9815 389.452 77.7085C389.851 77.4355 390.171 76.984 390.413 76.354C390.665 75.724 390.796 74.8735 390.807 73.8025C390.492 74.2015 390.124 74.5165 389.704 74.7475C389.284 74.9785 388.864 75.094 388.444 75.094C387.583 75.094 386.89 74.8367 386.365 74.3222C385.851 73.7972 385.593 73.0202 385.593 71.9912C385.593 71.3507 385.73 70.789 386.003 70.306C386.276 69.823 386.633 69.445 387.074 69.172C387.525 68.899 388.019 68.7625 388.554 68.7625C389.216 68.7625 389.809 68.941 390.334 69.298C390.859 69.655 391.269 70.1905 391.563 70.9045C391.867 71.6185 392.019 72.5162 392.019 73.5977C392.019 74.9417 391.836 76.0232 391.468 76.8422C391.111 77.6612 390.644 78.2597 390.066 78.6377C389.489 79.0052 388.864 79.189 388.192 79.189ZM394.43 75.1885H397.58V72.2747C397.58 72.0017 397.591 71.6762 397.612 71.2982C397.633 70.9202 397.648 70.6 397.659 70.3375H397.596C397.47 70.579 397.339 70.8152 397.202 71.0463C397.066 71.2772 396.924 71.5135 396.777 71.755L394.43 75.1885ZM397.58 79V76.228H393.06V75.3775L397.36 68.9515H398.809V75.1885H400.179V76.228H398.809V79H397.58ZM402.039 79V68.668H407.992V69.7705H403.346V73.267H407.283V74.3695H403.346V79H402.039Z" fill="white"/>
<rect x="0.25" y="0.25" width="101.5" height="85.5" fill="#2B361C" stroke="black" stroke-width="0.5"/>
<path d="M45.63 75V74.2282C46.638 73.2202 47.4938 72.3382 48.1973 71.5822C48.9008 70.8157 49.4363 70.128 49.8038 69.519C50.1713 68.8995 50.355 68.322 50.355 67.7865C50.355 67.209 50.1975 66.7365 49.8825 66.369C49.5675 66.0015 49.0898 65.8177 48.4493 65.8177C48.0293 65.8177 47.6408 65.9385 47.2838 66.18C46.9268 66.411 46.6013 66.6945 46.3073 67.0305L45.567 66.2902C45.987 65.8282 46.4333 65.4607 46.9058 65.1877C47.3888 64.9042 47.9558 64.7625 48.6068 64.7625C49.5413 64.7625 50.2763 65.0355 50.8118 65.5815C51.3473 66.117 51.615 66.831 51.615 67.7235C51.615 68.3535 51.4365 68.994 51.0795 69.645C50.733 70.2855 50.25 70.9627 49.6305 71.6767C49.0215 72.3802 48.318 73.1467 47.52 73.9762C47.793 73.9552 48.0765 73.9342 48.3705 73.9132C48.6645 73.8922 48.9428 73.8817 49.2053 73.8817H52.119V75H45.63ZM54.2464 75V64.668H57.3176C58.0211 64.668 58.6354 64.752 59.1604 64.92C59.6959 65.088 60.1106 65.3557 60.4046 65.7232C60.7091 66.0907 60.8614 66.579 60.8614 67.188C60.8614 67.7025 60.7301 68.1697 60.4676 68.5897C60.2156 68.9992 59.8429 69.2827 59.3494 69.4402V69.5032C59.9689 69.6187 60.4729 69.8812 60.8614 70.2907C61.2604 70.7002 61.4599 71.262 61.4599 71.976C61.4599 72.648 61.2919 73.2097 60.9559 73.6612C60.6304 74.1127 60.1736 74.4487 59.5856 74.6692C58.9976 74.8897 58.3151 75 57.5381 75H54.2464ZM55.5536 69.0622H57.0814C57.9634 69.0622 58.5986 68.91 58.9871 68.6055C59.3756 68.301 59.5699 67.8862 59.5699 67.3612C59.5699 66.7627 59.3651 66.3375 58.9556 66.0855C58.5566 65.8335 57.9529 65.7075 57.1444 65.7075H55.5536V69.0622ZM55.5536 73.9605H57.3491C58.2416 73.9605 58.9346 73.7977 59.4281 73.4722C59.9216 73.1362 60.1684 72.6217 60.1684 71.9287C60.1684 71.2882 59.9216 70.821 59.4281 70.527C58.9451 70.2225 58.2521 70.0702 57.3491 70.0702H55.5536V73.9605ZM65.8051 75.189C65.0071 75.189 64.3404 75.0472 63.8049 74.7637C63.2694 74.4697 62.8336 74.139 62.4976 73.7715L63.1591 72.921C63.4636 73.236 63.8206 73.5142 64.2301 73.7557C64.6396 73.9972 65.1384 74.118 65.7264 74.118C66.3354 74.118 66.8341 73.95 67.2226 73.614C67.6111 73.278 67.8054 72.8317 67.8054 72.2752C67.8054 71.8762 67.7004 71.5297 67.4904 71.2357C67.2909 70.9312 66.9549 70.695 66.4824 70.527C66.0204 70.359 65.3904 70.275 64.5924 70.275V69.2827C65.3064 69.2827 65.8681 69.1987 66.2776 69.0307C66.6976 68.8627 66.9969 68.637 67.1754 68.3535C67.3539 68.07 67.4431 67.755 67.4431 67.4085C67.4431 66.915 67.2856 66.5265 66.9706 66.243C66.6661 65.9595 66.2461 65.8177 65.7106 65.8177C65.2906 65.8177 64.9021 65.9122 64.5451 66.1013C64.1986 66.2902 63.8731 66.537 63.5686 66.8415L62.8756 66.0225C63.2641 65.655 63.6946 65.3557 64.1671 65.1247C64.6396 64.8832 65.1699 64.7625 65.7579 64.7625C66.6294 64.7625 67.3486 64.9882 67.9156 65.4397C68.4826 65.8807 68.7661 66.5055 68.7661 67.314C68.7661 67.923 68.5981 68.4217 68.2621 68.8102C67.9261 69.1987 67.4851 69.498 66.9391 69.708V69.771C67.5481 69.9075 68.0626 70.1962 68.4826 70.6372C68.9026 71.0677 69.1126 71.6295 69.1126 72.3225C69.1126 72.9105 68.9656 73.4197 68.6716 73.8502C68.3776 74.2807 67.9786 74.6115 67.4746 74.8425C66.9811 75.0735 66.4246 75.189 65.8051 75.189ZM74.0277 69.834C73.7022 69.834 73.3505 69.939 72.9725 70.149C72.5945 70.359 72.248 70.695 71.933 71.157C72.017 72.1335 72.2427 72.879 72.6102 73.3935C72.9882 73.908 73.4975 74.1652 74.138 74.1652C74.6315 74.1652 75.0462 73.9657 75.3822 73.5667C75.7182 73.1572 75.8862 72.6217 75.8862 71.9602C75.8862 71.3092 75.7287 70.7947 75.4137 70.4167C75.1092 70.0282 74.6472 69.834 74.0277 69.834ZM74.138 75.189C73.487 75.189 72.899 75.0105 72.374 74.6535C71.849 74.2965 71.4342 73.761 71.1297 73.047C70.8252 72.3225 70.673 71.4247 70.673 70.3537C70.673 69.0097 70.8515 67.9282 71.2085 67.1092C71.576 66.2902 72.0485 65.697 72.626 65.3295C73.214 64.9515 73.8387 64.7625 74.5002 64.7625C75.0462 64.7625 75.5135 64.8675 75.902 65.0775C76.301 65.277 76.6422 65.529 76.9257 65.8335L76.2012 66.6367C76.0017 66.3952 75.755 66.2062 75.461 66.0697C75.167 65.9227 74.8625 65.8492 74.5475 65.8492C74.075 65.8492 73.6445 65.9857 73.256 66.2587C72.8675 66.5212 72.5472 66.9675 72.2952 67.5975C72.0537 68.217 71.9225 69.057 71.9015 70.1175C72.2165 69.729 72.584 69.4245 73.004 69.204C73.424 68.973 73.8387 68.8575 74.2482 68.8575C75.1197 68.8575 75.8127 69.12 76.3272 69.645C76.8522 70.1595 77.1147 70.9312 77.1147 71.9602C77.1147 72.6007 76.9782 73.1625 76.7052 73.6455C76.4322 74.1285 76.07 74.5065 75.6185 74.7795C75.1775 75.0525 74.684 75.189 74.138 75.189ZM78.9901 75V73.929H81.2896V66.5265H79.4626V65.6917C79.9246 65.6077 80.3236 65.508 80.6596 65.3925C81.0061 65.2665 81.3158 65.1195 81.5888 64.9515H82.5811V73.929H84.6601V75H78.9901ZM90.8982 75.189C90.0372 75.189 89.2655 74.979 88.583 74.559C87.911 74.1285 87.3755 73.5142 86.9765 72.7162C86.588 71.9182 86.3937 70.9575 86.3937 69.834C86.3937 68.721 86.5932 67.7655 86.9922 66.9675C87.3912 66.1695 87.9372 65.5552 88.6302 65.1247C89.3232 64.6942 90.1055 64.479 90.977 64.479C91.607 64.479 92.1635 64.6102 92.6465 64.8727C93.1295 65.1247 93.518 65.4187 93.812 65.7547L93.1032 66.6052C92.8302 66.3112 92.5205 66.075 92.174 65.8965C91.8275 65.718 91.4337 65.6287 90.9927 65.6287C90.3417 65.6287 89.7695 65.802 89.276 66.1485C88.793 66.4845 88.415 66.9622 88.142 67.5817C87.8795 68.2012 87.7482 68.9415 87.7482 69.8025C87.7482 70.6635 87.8795 71.4142 88.142 72.0547C88.4045 72.6847 88.772 73.173 89.2445 73.5195C89.7275 73.866 90.2945 74.0392 90.9455 74.0392C91.439 74.0392 91.88 73.9342 92.2685 73.7242C92.657 73.5142 93.014 73.2307 93.3395 72.8737L94.064 73.6927C93.6545 74.1652 93.1925 74.5327 92.678 74.7952C92.1635 75.0577 91.5702 75.189 90.8982 75.189Z" fill="white"/>
</svg>
